<?xml version="1.0" encoding="utf-8"?>
<!-- Generator: Adobe Illustrator 19.0.0, SVG Export Plug-In . SVG Version: 6.00 Build 0)  -->
<svg version="1.1" id="Слой_1" xmlns="http://www.w3.org/2000/svg" xmlns:xlink="http://www.w3.org/1999/xlink" x="0px" y="0px"
	 viewBox="-321 385 60 23" style="enable-background:new -321 385 60 23;" xml:space="preserve">
<title>cup</title>
<path d="M-278,388.8V385h-13.4v3.8c-2.5,0.6-4,3-3.5,5.5c0.4,1.8,1.8,3.2,3.6,3.5c0.1,0.4,0.3,0.8,0.5,1.2c1.1,1.9,3,3.1,5.2,3.4
	v3.6h-4.5v2h11v-2h-4.5v-3.7c2.1-0.3,3.9-1.6,5-3.4c0.2-0.3,0.4-0.7,0.5-1.1c2.5-0.5,4.1-2.9,3.7-5.4c-0.3-1.8-1.7-3.2-3.5-3.6H-278
	z M-291.4,395.6c-1.3-0.5-2-1.9-1.5-3.2c0.3-0.7,0.8-1.2,1.5-1.5V395.6z M-280,396.5c0,0.5-0.2,0.9-0.4,1.3c-1.5,2.4-4.6,3.2-7,1.7
	c-0.7-0.4-1.3-1-1.7-1.7c-0.2-0.4-0.3-0.8-0.3-1.3V387h9.4V396.5z M-278,395.6v-4.7c1.3,0.4,2.1,1.8,1.7,3.1
	c-0.2,0.8-0.9,1.5-1.7,1.7V395.6z"/>
</svg>
