<?xml version="1.0" encoding="utf-8"?>
<!-- Generator: Adobe Illustrator 19.0.0, SVG Export Plug-In . SVG Version: 6.00 Build 0)  -->
<svg version="1.1" id="Ğ¡Ğ»Ğ¾Ğ¹_1" xmlns="http://www.w3.org/2000/svg" xmlns:xlink="http://www.w3.org/1999/xlink" x="0px" y="0px"
	 viewBox="-302 385.2 60 23.8" style="enable-background:new -302 385.2 60 23.8;" xml:space="preserve">
<title>heart</title>
<path d="M-265,385.2c-2.3,0-4.5,1.1-5.8,3c-1.3-1.9-3.5-3-5.8-3c-4.1,0-7.4,3.3-7.4,7.4c0,5.8,13.2,16.4,13.2,16.4
	s13.2-10.6,13.2-16.4C-257.6,388.5-260.9,385.2-265,385.2L-265,385.2z M-265,387.8c2.6,0,4.7,2.1,4.7,4.7v0.1
	c0,2.6-5.2,8.5-10.6,12.9c-5.3-4.6-10.5-10.4-10.5-12.9c-0.1-2.6,2-4.7,4.6-4.8c0.1,0,0.1,0,0.2,0c3.2,0,5.8,4,5.8,4
	S-268.3,387.8-265,387.8"/>
</svg>
