<?xml version="1.0" encoding="utf-8"?>
<!-- Generator: Adobe Illustrator 19.0.0, SVG Export Plug-In . SVG Version: 6.00 Build 0)  -->
<svg version="1.1" id="Слой_1" xmlns="http://www.w3.org/2000/svg" xmlns:xlink="http://www.w3.org/1999/xlink" x="0px" y="0px"
	 viewBox="-179.8 374.8 45 45" style="enable-background:new -179.8 374.8 45 45;" xml:space="preserve">
<style type="text/css">
	.st0{fill:#CC0000;}
</style>
<title>ogg_logo_new</title>
<path class="st0" d="M-157.3,374.8c-12.4,0-22.5,10.1-22.5,22.5c0,12.4,10.1,22.5,22.5,22.5c12.4,0,22.5-10.1,22.5-22.5l0,0
	C-134.8,384.9-144.9,374.8-157.3,374.8z M-149.8,410.5c-5.9,4.5-14.3,3.1-18.9-3.2c-3.7-5-4-11.3-0.8-16.7c4.7-7.9,15-11.3,23.5-7.6
	l0.8,0.4l-7-0.2v0.2l1.9,0.3v0.3c-0.7,0.1-1.4,0.3-2,0.2c-6-0.5-13.7,4.2-15.7,10.5c-2.1,6.8,2.3,14.3,9.3,15.4
	c4.9,0.7,9.8-2.8,10.4-7.7c0.3-2.8-1-4.9-3.2-6.4c-2.2-1.5-3.9-1.3-5.9-0.2c-2,1.1-2.6,2.6-2.3,4.6c0.1-0.2,0.2-0.4,0.2-0.6
	c0.4-2.1,1.5-3.3,3.3-3.6c2-0.4,3.9,0.5,4.9,2.2c1.8,3.1-0.1,7.1-3.9,7.9c-2.8,0.6-5-0.6-6.7-2.8c-1.7-2.2-1.6-5.3-0.2-7.5
	c3.6-5.7,11.6-5.6,15.4,0.4C-143.9,401-145.2,407-149.8,410.5z"/>
<path class="st0" d="M-155.7,404.2c2.1-0.2,3.7-2.1,3.5-4.2c-0.2-1.9-1.7-3.3-3.5-3.5c-2.4,0.1-3.7,1.9-3.9,3.9
	C-159.7,402.3-157.7,404.2-155.7,404.2z M-155.6,398.8c0.9,0,1.5,0.8,1.5,1.6v0c-0.1,0.9-0.8,1.5-1.7,1.4c-0.9-0.1-1.5-0.8-1.4-1.7
	C-157,399.4-156.3,398.8-155.6,398.8z"/>
</svg>
